<svg t="1608175895964" class="icon" viewBox="0 0 1024 1024" version="1.1" xmlns="http://www.w3.org/2000/svg" p-id="3044" width="200" height="200"><path d="M321.013201 142.274354c7.873318 5.907547 15.914458 12.631692 24.113187 20.171412 8.202822 7.549953 15.58086 16.243963 22.143323 26.088168 3.278673 5.244444 7.214309 11.147898 11.811 17.71343 4.590552 6.558369 8.855692 13.119809 12.793374 19.681248 4.590552 7.215332 9.182127 14.760169 13.772678 22.630417l203.713658 0c4.590552-6.558369 8.852622-13.452383 12.790304-20.663622 3.278673-5.903453 6.886851-11.806907 10.82658-17.718547 3.937682-5.90243 7.540743-11.142781 10.82351-15.742543 6.565533-9.182127 13.118785-17.876136 19.680225-26.075889 6.561439-8.202822 16.077164-16.237823 28.54615-24.113187 5.240351-3.282766 9.673313-7.543813 13.285584-12.793374 3.603061-5.244444 5.90243-10.499122 6.885827-15.743566 0.982374-5.253654 0.324388-10.335393-1.970888-15.255449-2.300392-4.915963-6.720052-8.69094-13.285584-11.319813-5.906523-1.966795-10.990309-2.619664-15.251356-1.966795-4.266164 0.659009-8.532327 1.804089-12.798491 3.441379-4.261047 1.645476-8.689916 3.444449-13.276375 5.411243-4.595668 1.974981-10.177803 2.957355-16.73515 2.957355-6.561439 0-11.973706-1.150196-16.238846-3.440355-4.266164-2.304486-8.202822-5.091972-11.811-8.370645-3.603061-3.278673-7.378038-6.719028-11.310603-10.335393-3.937682-3.603061-9.18622-6.390547-15.752776-8.365528-13.118785-5.244444-23.612791-6.231935-31.490202-2.949168-7.869225 3.278673-15.739473 8.528234-23.616884 15.747659-6.557346 6.561439-11.80179 11.156084-15.743566 13.775748-1.966795 1.308809-3.608178 1.966795-4.920056 1.966795-3.940752-1.966795-7.54893-4.261047-10.82658-6.886851-3.278673-1.965771-6.39464-4.103458-9.348925-6.393617-2.950192-2.296299-5.737678-5.082762-8.361435-8.370645-5.249561-5.244444-13.126972-8.689916-23.626094-10.335393-10.489912-1.633197-20.004613 0.165776-28.532847 5.420453-11.151991 7.211239-19.026332 13.285584-23.620977 18.205641-4.590552 4.915963-11.477402 8.360412-20.663622 10.331299-5.249561 1.307785-10.985192 0.979304-17.222243-0.982374-6.236028-1.974981-12.631692-3.941775-19.188015-5.903453-6.565533-1.970888-12.794397-3.278673-18.701944-3.936659-5.903453-0.659009-11.148921 0.657986-15.743566 3.936659-9.185196 7.215332-12.140505 15.905248-8.860808 26.074865C306.582537 128.333854 312.493154 136.370901 321.013201 142.274354L321.013201 142.274354 321.013201 142.274354zM853.903997 611.19521c-4.920056-32.469506-13.615089-61.182454-26.074865-86.111217-12.464893-24.921599-27.067472-46.738487-43.798529-65.444525-16.731056-18.688641-32.965809-34.93158-48.712445-48.713468-19.026332-15.738449-35.753295-30.66951-50.189076-44.771693-14.434757-14.109346-26.566052-26.732851-36.410258-37.889959-11.805884-12.459776-21.645996-23.945365-29.525454-34.43937L397.776516 293.824979c-8.524141 11.156084-18.373463 22.962991-29.525454 35.427884-9.18622 11.151991-20.663622 23.450085-34.440393 36.901445-13.775748 13.44829-29.194926 27.717272-46.254463 42.806945-19.681248 17.063631-37.889959 36.410258-54.615898 58.065464-16.731056 21.651113-30.670533 45.430702-41.827641 71.342862-11.147898 25.917276-18.859533 53.637618-23.125697 83.158978-4.261047 29.52443-3.440355 60.361763 2.457981 92.505857 5.249561 28.870538 16.077164 57.898665 32.482809 87.090521 16.401552 29.199019 38.535665 55.599296 66.417689 79.220273 27.884071 23.626094 61.836347 42.814108 101.858876 57.574277 40.015366 14.761192 85.940324 22.134113 137.774877 22.134113 50.516534 0 95.617731-6.39464 135.311779-19.183921 39.693024-12.794397 73.967642-30.016641 102.83818-51.66673 28.865421-21.651113 51.991118-47.072085 69.38016-76.262918 17.384949-29.200042 29.028127-60.199057 34.93158-92.998067C858.008478 679.913291 858.824053 643.673925 853.903997 611.19521L853.903997 611.19521 853.903997 611.19521zM665.814178 791.523251c-5.754051 3.984754-13.066597 5.989411-21.937638 5.989411l-93.087095 0 0 26.592658c0 7.980765-3.329838 15.730263-9.973142 23.275099-6.65149 7.531534-15.293311 10.857279-25.937742 9.972119-10.631128 0-19.504216-2.440585-26.595728-7.317663-7.092535-4.881171-11.079336-13.519921-11.960403-25.929556l0-26.592658-90.433662 0c-8.864902 0-16.183588-2.441609-21.941732-7.322779-5.757121-4.872984-8.202822-10.856255-7.317663-17.948791 0-7.976672 2.889817-14.405081 8.646937-19.282159 5.762237-4.872984 12.635785-7.309476 20.612457-7.309476l90.429569 0 0-46.540989-90.429569 0c-8.864902 0-15.957437-2.666736-21.278629-7.988951-5.314029-5.317099-7.980765-11.519358-7.980765-18.61087 0-7.092535 2.889817-13.748119 8.646937-19.950378 5.762237-6.202259 12.635785-9.305947 20.612457-9.305947l90.429569 0 1.329275-27.925003c-15.957437-15.96153-30.581506-31.033807-43.883463-45.216831-11.524474-12.412704-22.167882-23.938202-31.917944-34.5724l-19.949354-18.62008c-4.428869-5.317099-8.417717-12.639878-11.969613-21.945825-3.547803-9.305947-1.769296-18.842137 5.322216-28.593222 7.976672-8.860808 17.726733-11.2973 29.255301-7.308453 11.524474 3.987824 20.829398 9.082866 27.930119 15.294334 3.544733 4.432962 9.751085 11.079336 18.62008 19.941168l63.823608 63.841004c15.072277-14.187117 28.815279-27.040866 41.22389-38.569434 10.635221-9.751085 21.278629-19.287275 31.917944-28.593222 10.640338-9.305947 18.174941-15.730263 22.607904-19.282159 7.976672-7.087419 16.842597-10.631128 26.596751-10.631128 9.750061 0 17.726733 3.978614 23.933085 11.95938 11.524474 13.298887 7.087419 28.811186-13.297864 46.547129-5.318122 4.431939-13.294794 12.186554-23.933085 23.269983-10.644431 11.084453-21.283746 21.941732-31.91078 32.581046-12.420891 13.293771-26.1598 27.036773-41.232077 41.22389l0 25.266453 86.440721 0c12.409634 0 21.496593 2.88163 27.258831 8.639774 5.767354 5.770424 8.646937 12.19167 8.646937 19.287275 0 7.980765-2.657526 14.854313-7.983835 20.60734-5.318122 5.765307-14.179954 8.206916-26.592658 7.317663l-86.444814 1.338485-1.325182 45.204551 85.10633 0c24.827455 0 37.235043 9.31004 37.235043 27.925003C674.021094 781.105994 671.583578 787.535427 665.814178 791.523251L665.814178 791.523251 665.814178 791.523251zM665.814178 791.523251" p-id="3045"></path></svg>